<!-- Generated by IcoMoon.io -->
<svg version="1.1" xmlns="http://www.w3.org/2000/svg" width="32" height="32" viewBox="0 0 32 32">
<title>stars</title>
<path d="M12.76 15.64l-1.26 3.36-1.26-3.36-2.24-0.64 2.24-0.64 1.26-3.36 1.26 3.36 2.24 0.64-2.24 0.64zM22.714 9.238l-1.214-3.238-1.214 3.238-2.286 0.762 2.286 0.762 1.214 3.238 1.214-3.238 2.286-0.762-2.286-0.762zM20.714 21.238l-1.214-3.238-1.214 3.238-2.286 0.762 2.286 0.762 1.214 3.238 1.214-3.238 2.286-0.762-2.286-0.762zM13.459 13.486l-1.959-5.487-1.959 5.487-4.541 1.514 4.541 1.514 1.959 5.486 1.959-5.486 4.541-1.514-4.541-1.514z"></path>
</svg>
